<svg xmlns="http://www.w3.org/2000/svg" width="1270" height="698" viewBox="0 0 1270 698">
  <defs>
    <linearGradient id="navy" x1="0" y1="0" x2="1" y2="1"><stop stop-color="#061b3b"/><stop offset="1" stop-color="#123d78"/></linearGradient>
    <linearGradient id="orange" x1="0" y1="0" x2="1" y2="1"><stop stop-color="#ff6a00"/><stop offset="1" stop-color="#ffbd28"/></linearGradient>
    <linearGradient id="gold" x1="0" y1="0" x2="1" y2="1"><stop stop-color="#9c6200"/><stop offset=".32" stop-color="#ffe172"/><stop offset=".68" stop-color="#df990d"/><stop offset="1" stop-color="#fff0aa"/></linearGradient>
    <pattern id="dots" width="14" height="14" patternUnits="userSpaceOnUse"><circle cx="3" cy="3" r="1.8" fill="#123d78" opacity=".75"/></pattern>
    <filter id="shadow" x="-50%" y="-50%" width="200%" height="200%"><feDropShadow dx="0" dy="5" stdDeviation="5" flood-color="#12233e" flood-opacity=".18"/></filter>
  </defs>
  <rect width="1270" height="698" fill="#fff"/>

  <!-- Navy structural corners -->
  <path d="M0 0 H102 L0 102Z" fill="url(#navy)"/>
  <path d="M0 0 H197 L0 197Z" fill="none" stroke="#123d78" stroke-width="20"/>
  <path d="M1270 0 H1125 L1270 145Z" fill="url(#navy)"/>
  <path d="M1270 698 H1100 L1270 528Z" fill="url(#navy)"/>
  <path d="M0 698 H300 L0 398Z" fill="url(#navy)"/>

  <!-- Orange geometry left/top -->
  <g opacity=".98">
    <path d="M0 112 L110 15 170 75 60 173Z" fill="#ffab15"/>
    <path d="M0 185 L145 52 216 122 68 255Z" fill="url(#orange)" opacity=".86"/>
    <path d="M0 255 L88 175 154 241 66 321Z" fill="#ff7b00" opacity=".8"/>
    <rect x="165" y="33" width="48" height="48" transform="rotate(45 189 57)" fill="#ffb41d"/>
    <rect x="55" y="260" width="145" height="145" transform="rotate(45 127 332)" fill="url(#orange)"/>
    <rect x="78" y="283" width="100" height="100" transform="rotate(45 128 333)" fill="none" stroke="#ffdf78" stroke-width="7"/>
  </g>

  <!-- Right geometry -->
  <g>
    <rect x="1120" y="341" width="122" height="122" transform="rotate(45 1181 402)" fill="url(#orange)"/>
    <rect x="1149" y="370" width="79" height="79" transform="rotate(45 1188 409)" fill="none" stroke="#ffd86a" stroke-width="6"/>
    <rect x="1140" y="445" width="72" height="72" transform="rotate(45 1176 481)" fill="#ff6c00" opacity=".72"/>
    <rect x="1072" y="268" width="142" height="118" fill="url(#dots)" transform="rotate(-18 1143 327)"/>
    <path d="M1115 0 H1210 L1270 60" fill="none" stroke="#f4a612" stroke-width="2"/>
  </g>

  <!-- Fine line architecture -->
  <path d="M28 15 H1120 M24 28 H1090 M24 670 H1080 M42 684 H1110" stroke="#f5a000" stroke-width="1.5"/>
  <path d="M15 25 V640 M1254 55 V652" stroke="#f5a000" stroke-width="1.5"/>
  <path d="M68 15 L181 128 M91 15 L204 128 M117 15 L230 128" stroke="#ef9500" stroke-width="1.3" opacity=".75"/>
  <path d="M1050 684 L1254 480 M1081 684 L1254 511 M1113 684 L1254 543" stroke="#ef9500" stroke-width="1.3" opacity=".75"/>

  <!-- Top-right academic medal -->
  <g transform="translate(1060 28)" filter="url(#shadow)">
    <path d="M64 112 L48 172 82 151 102 187 122 151 156 172 140 112Z" fill="url(#navy)"/>
    <circle cx="102" cy="82" r="68" fill="url(#gold)" stroke="#d39310" stroke-width="4"/>
    <circle cx="102" cy="82" r="52" fill="#082754" stroke="#ffe790" stroke-width="3"/>
    <path d="M72 77 L102 62 132 77 102 93Z" fill="#fff"/>
    <path d="M80 85 V102 Q102 115 124 102 V85 L102 96Z" fill="#fff"/>
    <path d="M136 78 V103" stroke="#fff" stroke-width="3"/>
    <path d="M62 112 Q72 135 90 144 M142 112 Q132 135 114 144" fill="none" stroke="#efc437" stroke-width="3"/>
    <circle cx="73" cy="42" r="4" fill="#f6c92e"/><circle cx="102" cy="34" r="5" fill="#f6c92e"/><circle cx="131" cy="42" r="4" fill="#f6c92e"/>
  </g>

  <!-- Bottom emblem -->
  <g transform="translate(520 520)">
    <path d="M20 104 Q47 74 77 62 M178 104 Q151 74 121 62" fill="none" stroke="#0b3268" stroke-width="5" stroke-linecap="round"/>
    <path d="M34 99 l15-2-8-13 15 5-2-15 11 11 5-15 4 16 12-10-5 15 M164 99 l-15-2 8-13-15 5 2-15-11 11-5-15-4 16-12-10 5 15" fill="none" stroke="#0b3268" stroke-width="3"/>
    <path d="M61 56 Q99 35 137 56 V101 Q99 79 61 101Z" fill="#0b3268"/>
    <path d="M99 47 V99" stroke="#fff" stroke-width="3"/>
    <path d="M99 0 C111 15 107 24 99 34 C91 24 87 15 99 0Z" fill="#ff8c00"/>
    <path d="M99 31 V48" stroke="#f5a000" stroke-width="5"/>
  </g>

  <!-- Blank content guides -->
  <path d="M515 242 H755" stroke="#0b3268" stroke-width="1.4" opacity=".52"/>
  <path d="M330 328 H940" stroke="#0b3268" stroke-width="1.2" opacity=".44"/>
  <path d="M345 415 H925" stroke="#0b3268" stroke-width="1" opacity=".32"/>
  <path d="M430 466 H840 L815 527 H455Z" fill="none" stroke="#0b3268" stroke-width="2" opacity=".74"/>
  <path d="M865 574 H1100" stroke="#0b3268" stroke-width="1.4" opacity=".58"/>
  <path d="M900 625 H1070" stroke="#0b3268" stroke-width="1" opacity=".5"/>
</svg>
